<svg xmlns="http://www.w3.org/2000/svg" xmlns:xlink="http://www.w3.org/1999/xlink" width="26" height="26" viewBox="0 0 26 26">
  <defs>
    <clipPath id="clip-path">
      <rect id="사각형_25232" data-name="사각형 25232" width="26" height="26" transform="translate(552.888 564.888)" fill="#fff"/>
    </clipPath>
  </defs>
  <g id="icon_star" transform="translate(-552.888 -564.888)" clip-path="url(#clip-path)">
    <path id="star" d="M16.658,6.54a.886.886,0,0,0-.764-.61l-4.821-.438L9.167,1.031a.888.888,0,0,0-1.633,0L5.628,5.492.807,5.93A.889.889,0,0,0,.3,7.483l3.644,3.2L2.873,15.412a.886.886,0,0,0,1.32.959l4.158-2.485,4.157,2.485a.888.888,0,0,0,1.321-.959l-1.074-4.733L16.4,7.484A.888.888,0,0,0,16.658,6.54Zm0,0" transform="translate(557.537 569.393)" fill="#ffb529"/>
  </g>
</svg>
