<svg xmlns="http://www.w3.org/2000/svg" xmlns:xlink="http://www.w3.org/1999/xlink" width="18" height="18" viewBox="0 0 18 18">
  <defs>
    <clipPath id="clip-path">
      <rect id="사각형_25656" data-name="사각형 25656" width="18" height="18" transform="translate(600 504)" fill="#ffe2e2"/>
    </clipPath>
    <clipPath id="clip-path-2">
      <rect id="사각형_24748" data-name="사각형 24748" width="16" height="16" transform="translate(881 316)" fill="#333" stroke="#333" stroke-width="1"/>
    </clipPath>
  </defs>
  <g id="icon_calendar_bk" transform="translate(-600 -504)" clip-path="url(#clip-path)">
    <g id="icon_calendar_bk-2" data-name="icon_calendar_bk" transform="translate(-280 189)" clip-path="url(#clip-path-2)">
      <g id="계약기간" transform="translate(881.219 316.802)">
        <g id="그룹_18721" data-name="그룹 18721" transform="translate(3.253)">
          <path id="패스_8445" data-name="패스 8445" d="M15.571,12.92h-.879a.2.2,0,0,1-.195-.195V10.695a.2.2,0,0,1,.195-.195h.879a.2.2,0,0,1,.195.195v2.035A.194.194,0,0,1,15.571,12.92Z" transform="translate(-14.498 -10.5)" fill="#333"/>
        </g>
        <path id="패스_8446" data-name="패스 8446" d="M26.454,12h-2.4v1.039a.218.218,0,0,1-.218.218H22.229a.218.218,0,0,1-.218-.218V12H16.273v1.039a.218.218,0,0,1-.218.218H14.448a.218.218,0,0,1-.218-.218V12h-2.4a.468.468,0,0,0-.467.467V24.372a.468.468,0,0,0,.467.467H26.458a.468.468,0,0,0,.467-.467V12.467A.474.474,0,0,0,26.454,12Zm-.506,11.345a.413.413,0,0,1-.412.412H12.748a.413.413,0,0,1-.412-.412v-7.82a.413.413,0,0,1,.412-.412H25.536a.413.413,0,0,1,.412.412v7.82Z" transform="translate(-11.362 -10.444)" fill="#333"/>
        <g id="그룹_18722" data-name="그룹 18722" transform="translate(11.034)">
          <path id="패스_8447" data-name="패스 8447" d="M23.071,12.92h-.879A.2.2,0,0,1,22,12.725V10.695a.2.2,0,0,1,.195-.195h.879a.2.2,0,0,1,.195.195v2.035A.194.194,0,0,1,23.071,12.92Z" transform="translate(-21.998 -10.5)" fill="#333"/>
        </g>
        <path id="패스_8448" data-name="패스 8448" d="M16.875,18.792l1.556,1.945,3.113-3.113" transform="translate(-11.156 -10.233)" fill="none" stroke="#333" stroke-linecap="round" stroke-miterlimit="10" stroke-width="0.75"/>
      </g>
    </g>
  </g>
</svg>
