<svg xmlns="http://www.w3.org/2000/svg" xmlns:xlink="http://www.w3.org/1999/xlink" width="40" height="40" viewBox="0 0 40 40">
  <defs>
    <clipPath id="clip-path">
      <rect id="사각형_25879" data-name="사각형 25879" width="40" height="40" transform="translate(552.888 564.888)" fill="#fff"/>
    </clipPath>
  </defs>
  <g id="icon_star_line_40px" transform="translate(-552.888 -564.888)" clip-path="url(#clip-path)">
    <path id="star" d="M25.628,9.8a1.363,1.363,0,0,0-1.176-.939l-7.416-.673L14.1,1.321a1.366,1.366,0,0,0-2.512,0L8.659,8.185l-7.417.673a1.367,1.367,0,0,0-.775,2.39l5.606,4.916L4.419,23.446A1.363,1.363,0,0,0,6.45,24.921l6.4-3.823,6.395,3.823a1.365,1.365,0,0,0,2.032-1.475l-1.653-7.282,5.606-4.915A1.366,1.366,0,0,0,25.628,9.8Zm0,0" transform="translate(560.04 572.084)" fill="none" stroke="#ffb529" stroke-width="1"/>
  </g>
</svg>
