<svg xmlns="http://www.w3.org/2000/svg" width="203.999" height="72" viewBox="0 0 203.999 72">
  <g id="img_burbble" transform="translate(130 -2448) rotate(180)" fill="#f7f6ff">
    <path d="M -46.99980926513672 -2448.953857421875 L -53.34338760375977 -2459.26171875 L -53.48981094360352 -2459.499755859375 L -53.76920318603516 -2459.499755859375 L -69.00031280517578 -2459.499755859375 C -71.48133850097656 -2459.499755859375 -73.49980926513672 -2461.5185546875 -73.49980926513672 -2464.000244140625 L -73.49980926513672 -2514.999755859375 C -73.49980926513672 -2517.481201171875 -71.48133850097656 -2519.5 -69.00031280517578 -2519.5 L 125.000114440918 -2519.5 C 127.4811401367188 -2519.5 129.4996185302734 -2517.481201171875 129.4996185302734 -2514.999755859375 L 129.4996185302734 -2464.000244140625 C 129.4996185302734 -2461.5185546875 127.4811401367188 -2459.499755859375 125.000114440918 -2459.499755859375 L -40.23038864135742 -2459.499755859375 L -40.50978469848633 -2459.499755859375 L -40.65620422363281 -2459.26171875 L -46.99980926513672 -2448.953857421875 Z" stroke="none"/>
    <path d="M -46.99980926513672 -2449.907958984375 L -40.78917694091797 -2459.999755859375 L 125.000114440918 -2459.999755859375 C 127.205451965332 -2459.999755859375 128.9996185302734 -2461.79443359375 128.9996185302734 -2464.000244140625 L 128.9996185302734 -2514.999755859375 C 128.9996185302734 -2517.20556640625 127.205451965332 -2519 125.000114440918 -2519 L -69.00031280517578 -2519 C -71.20565032958984 -2519 -72.99980926513672 -2517.20556640625 -72.99980926513672 -2514.999755859375 L -72.99980926513672 -2464.000244140625 C -72.99980926513672 -2461.79443359375 -71.20565032958984 -2459.999755859375 -69.00031280517578 -2459.999755859375 L -53.21041488647461 -2459.999755859375 L -46.99980926513672 -2449.907958984375 M -46.99980926513672 -2448 L -53.76920318603516 -2458.999755859375 L -69.00031280517578 -2458.999755859375 C -71.76149749755859 -2458.999755859375 -73.99980926513672 -2461.23828125 -73.99980926513672 -2464.000244140625 L -73.99980926513672 -2514.999755859375 C -73.99980926513672 -2517.76171875 -71.76149749755859 -2520 -69.00031280517578 -2520 L 125.000114440918 -2520 C 127.7613220214844 -2520 129.9996185302734 -2517.76171875 129.9996185302734 -2514.999755859375 L 129.9996185302734 -2464.000244140625 C 129.9996185302734 -2461.23828125 127.7613220214844 -2458.999755859375 125.000114440918 -2458.999755859375 L -40.23038864135742 -2458.999755859375 L -46.99980926513672 -2448 Z" stroke="none" fill="#5f4eee"/>
  </g>
</svg>
