<svg xmlns="http://www.w3.org/2000/svg" width="14" height="14">
    <defs>
        <clipPath id="clip-path">
            <path id="ì‚¬ê°í˜•_24813" data-name="ì‚¬ê°í˜• 24813" transform="rotate(90 7 7)" style="fill:#bcbcbc" d="M0 0h14v14H0z"/>
        </clipPath>
        <clipPath id="clip-path-2">
            <path id="bx-chevron-down" class="cls-2" d="M6.723 4.787 3.837 1.9.951 4.787 0 3.837 3.837 0l3.836 3.837z"/>
        </clipPath>
        <style>
            .cls-2{fill:none}.cls-4{clip-path:url(#clip-path-2)}.cls-5{fill:#333}
        </style>
    </defs>
    <g id="btn_next_02" style="clip-path:url(#clip-path)">
        <g id="ê·¸ë£¹_18697" data-name="ê·¸ë£¹ 18697" transform="translate(2.426 3.163)">
            <g id="Arrow" transform="rotate(90 4.787 4.788)">
                <path id="bx-chevron-down-3" data-name="bx-chevron-down" class="cls-2" d="M6.723 4.787 3.837 1.9.951 4.787 0 3.837 3.837 0l3.836 3.837z"/>
                <g id="Arrow-2" data-name="Arrow" class="cls-4">
                    <path id="_color" data-name="ðŸŽ¨ color" class="cls-5" d="M0 19.72h19.72V0H0z" transform="translate(-6.023 -6.893)"/>
                </g>
            </g>
            <g id="Arrow-3" data-name="Arrow" transform="rotate(90 2.393 2.394)">
                <path id="bx-chevron-down-4" data-name="bx-chevron-down" class="cls-2" d="M6.723 4.787 3.837 1.9.951 4.787 0 3.837 3.837 0l3.836 3.837z"/>
                <g id="Arrow-4" data-name="Arrow" class="cls-4">
                    <path id="_color-2" data-name="ðŸŽ¨ color" class="cls-5" d="M0 19.72h19.72V0H0z" transform="translate(-6.023 -6.893)"/>
                </g>
            </g>
        </g>
    </g>
</svg>
