<svg xmlns="http://www.w3.org/2000/svg" width="18" height="18">
    <defs>
        <clipPath id="clip-path">
            <path id="사각형_25656" data-name="사각형 25656" transform="translate(600 504)" style="fill:#ffe2e2" d="M0 0h18v18H0z"/>
        </clipPath>
        <clipPath id="clip-path-2">
            <path id="사각형_24748" data-name="사각형 24748" transform="translate(881 316)" style="stroke:#333;fill:#333" d="M0 0h16v16H0z"/>
        </clipPath>
        <style>
            .cls-5{fill:#333}
        </style>
    </defs>
    <g id="icon_calendar_bk" transform="translate(-600 -504)" style="clip-path:url(#clip-path)">
        <g id="icon_calendar_bk-2" data-name="icon_calendar_bk" transform="translate(-280 189)" style="clip-path:url(#clip-path-2)">
            <g id="계약기간" transform="translate(881.219 316.802)">
                <g id="그룹_18721" data-name="그룹 18721" transform="translate(3.253)">
                    <path id="패스_8445" data-name="패스 8445" class="cls-5" d="M15.571 12.92h-.879a.2.2 0 0 1-.195-.195v-2.03a.2.2 0 0 1 .195-.195h.879a.2.2 0 0 1 .195.195v2.035a.194.194 0 0 1-.195.19z" transform="translate(-14.498 -10.5)"/>
                </g>
                <path id="패스_8446" data-name="패스 8446" class="cls-5" d="M26.454 12h-2.4v1.039a.218.218 0 0 1-.218.218h-1.607a.218.218 0 0 1-.218-.218V12h-5.738v1.039a.218.218 0 0 1-.218.218h-1.607a.218.218 0 0 1-.218-.218V12h-2.4a.468.468 0 0 0-.467.467v11.905a.468.468 0 0 0 .467.467h14.628a.468.468 0 0 0 .467-.467V12.467a.474.474 0 0 0-.471-.467zm-.506 11.345a.413.413 0 0 1-.412.412H12.748a.413.413 0 0 1-.412-.412v-7.82a.413.413 0 0 1 .412-.412h12.788a.413.413 0 0 1 .412.412v7.82z" transform="translate(-11.362 -10.444)"/>
                <g id="그룹_18722" data-name="그룹 18722" transform="translate(11.034)">
                    <path id="패스_8447" data-name="패스 8447" class="cls-5" d="M23.071 12.92h-.879a.2.2 0 0 1-.192-.195v-2.03a.2.2 0 0 1 .195-.195h.879a.2.2 0 0 1 .195.195v2.035a.194.194 0 0 1-.198.19z" transform="translate(-21.998 -10.5)"/>
                </g>
                <path id="패스_8448" data-name="패스 8448" d="m16.875 18.792 1.556 1.945 3.113-3.113" transform="translate(-11.156 -10.233)" style="fill:none;stroke-linecap:round;stroke-miterlimit:10;stroke-width:.75px;stroke:#333"/>
            </g>
        </g>
    </g>
</svg>
