<svg xmlns="http://www.w3.org/2000/svg" width="19" height="19" viewBox="0 0 19 19">
  <defs>
    <style>
      .cls-1, .cls-2 {
        fill: #ddd;
      }

      .cls-1 {
        opacity: 0;
      }
    </style>
  </defs>
  <g id="icon_info" transform="translate(0 0.532)">
    <g id="info" transform="translate(0 -0.408)">
      <rect id="사각형_25408" data-name="사각형 25408" class="cls-1" width="19" height="19" transform="translate(19 18.877) rotate(180)"/>
      <path id="패스_8280" data-name="패스 8280" class="cls-2" d="M9.651,2A7.651,7.651,0,1,0,17.3,9.651,7.651,7.651,0,0,0,9.651,2Zm0,13.772a6.121,6.121,0,1,1,6.121-6.121A6.121,6.121,0,0,1,9.651,15.772Z" transform="translate(0 0.044)"/>
      <circle id="타원_545" data-name="타원 545" class="cls-2" cx="0.768" cy="0.768" r="0.768" transform="translate(9 6.292)"/>
      <path id="패스_8281" data-name="패스 8281" class="cls-2" d="M11.765,10a.765.765,0,0,0-.765.765v3.826a.765.765,0,0,0,1.53,0V10.765A.765.765,0,0,0,11.765,10Z" transform="translate(-2 -1.835)"/>
    </g>
  </g>
</svg>
