<svg xmlns="http://www.w3.org/2000/svg" width="18" height="18">
    <path data-name="패스 8152" d="M15.975 10.815a.75.75 0 0 0-.937.487 5.355 5.355 0 0 1-5.152 3.69A5.325 5.325 0 0 1 4.5 9.743a5.325 5.325 0 0 1 5.385-5.25 5.445 5.445 0 0 1 3.487 1.253l-1.627-.27a.752.752 0 1 0-.24 1.485l3.18.525h.128a.75.75 0 0 0 .255-.045.247.247 0 0 0 .075-.045.585.585 0 0 0 .15-.083l.068-.082c0-.037.068-.068.1-.112s0-.075.037-.105a1 1 0 0 0 .052-.135l.563-3a.763.763 0 0 0-1.5-.285l-.2 1.087a6.907 6.907 0 0 0-4.528-1.688A6.825 6.825 0 0 0 3 9.743a6.825 6.825 0 0 0 6.885 6.75 6.84 6.84 0 0 0 6.615-4.74.75.75 0 0 0-.525-.937z" transform="translate(-.75 -.743)" style="fill:#fff"/>
</svg>
