<svg xmlns="http://www.w3.org/2000/svg" width="20" height="20">
    <defs>
        <clipPath id="clip-path">
            <path id="사각형_813" data-name="사각형 813" class="cls-1" transform="translate(1121 956)" d="M0 0h20v20H0z"/>
        </clipPath>
        <style>
            .cls-1{fill:#fff}
        </style>
    </defs>
    <g id="icon_download" transform="translate(-1121 -956)" style="clip-path:url(#clip-path)">
        <g id="XMLID_26_" transform="translate(1123.387 958)">
            <path id="XMLID_27_" class="cls-1" d="M83.432 12.254q.024.024.051.046l.024.018.03.022.03.018.028.017.031.015.03.014.031.011.033.011.032.008.034.008.037.006h.197l.036-.006.035-.008.031-.008.033-.012.031-.011.03-.014.031-.015.028-.017.03-.018.03-.022.025-.018q.025-.021.048-.044l3.23-3.23a.692.692 0 0 0-.979-.979l-2.048 2.048v-8.4a.692.692 0 0 0-1.384 0v8.4l-2.046-2.048a.692.692 0 0 0-.979.979z" transform="translate(-76.308)"/>
            <path id="XMLID_28_" class="cls-1" d="M14.534 300H.692a.692.692 0 0 0 0 1.384h13.842a.692.692 0 0 0 0-1.384z" transform="translate(0 -286.159)"/>
        </g>
    </g>
</svg>
