<svg xmlns="http://www.w3.org/2000/svg" width="120" height="38.429">
    <defs>
        <linearGradient id="linear-gradient" x1=".191" y1=".782" x2=".847" y2=".183" gradientUnits="objectBoundingBox">
            <stop offset="0" stop-color="#363c63"/>
            <stop offset="1" stop-color="#263e62"/>
        </linearGradient>
        <style>
            .cls-2{fill:#293e62}
        </style>
    </defs>
    <g id="img_im_logo">
        <path id="패스_1" data-name="패스 1" d="M35.1 15.205a10.179 10.179 0 0 0-.876-4.1 11.773 11.773 0 0 0-1.921-2.914 16.277 16.277 0 0 0-3.777-3.2 113.801 113.801 0 0 0-5.557-3.251A13.329 13.329 0 0 0 20.841.728c-.463-.157-.925-.318-1.393-.456A6.647 6.647 0 0 0 16.421.1a13.231 13.231 0 0 0-2.165.64 8.808 8.808 0 0 0-1.21.517Q9.6 3.082 6.3 5.175a15.335 15.335 0 0 0-3.259 2.752 12.923 12.923 0 0 0-1.85 2.548 10.263 10.263 0 0 0-1.186 4.749C0 15.951 0 16.677 0 17.4v5.776a10.276 10.276 0 0 0 1.189 4.773 13.075 13.075 0 0 0 1.918 2.62 16.216 16.216 0 0 0 3.544 2.908q2.87 1.787 5.843 3.4a12.2 12.2 0 0 0 1.947.874q.565.191 1.135.367a6.244 6.244 0 0 0 3.363.143c.73-.177 1.444-.43 2.155-.676a7.617 7.617 0 0 0 1.065-.475c2.081-1.1 4.11-2.293 6.117-3.523a17 17 0 0 0 4.566-4.018 10.131 10.131 0 0 0 2.25-6.339c.023-2.673.008-5.349.008-8.025zM8.119 11.243v-.077a.069.069 0 0 1 0-.01.049.049 0 0 1 0-.006v-.03c0-.044.009-.087.016-.13l.015-.085.019-.084.008-.031.009-.031.009-.031.01-.031c.009-.027.018-.054.029-.081l.029-.073.007-.016.007-.016.016-.034.017-.034.017-.034a1.437 1.437 0 0 1 .083-.141l.03-.044v-.007l.032-.043.02-.026.028-.035.025-.03.026-.03.027-.029.032-.034.016-.016.016-.016q.062-.061.126-.114l.032-.026.033-.025.047-.026.026-.019a1.651 1.651 0 0 1 .251-.148l.031-.014h.006l.019-.008.078-.03.022-.007.066-.02h.015c.031-.009.063-.016.1-.023h.026l.043-.007h.008l.04-.005h.026l.068-.005h.155c.042 0 .084 0 .127.009h.031l.04.005.069.012.034.007.053.012.053.013h.017l.053.015.045.014.021.007.047.017.046.018h.01l.055.024.051.024.044.023.012.007.045.025.042.025.018.011.023.016.021.014.08.059.01.008a1.6 1.6 0 0 1 .235.236l.034.044.034.046.03.044v.007l.024.037.027.044.015.027.013.024.012.023.019.037.017.036.01.022.031.071.013.032.016.043.023.065.01.03.016.049.007.023.006.023.011.047c0 .013.005.026.008.04l.007.04c0 .013 0 .027.006.04l.015.1.015.112v.032c0 .011 0 .033.008.05a1.87 1.87 0 0 1-.637 1.411 1.667 1.667 0 0 1-2.315-.079l-.025-.025-.024-.026-.024-.026-.02-.023.009-.002-.018-.022-.026-.033-.02-.026-.019-.026-.041-.059-.019-.034-.019-.031-.011-.018-.009-.016-.009-.016-.016-.019-.017-.032-.04-.082a1.9 1.9 0 0 1-.078-.2v-.013l-.01-.032-.011-.041c0-.014-.007-.027-.011-.041l-.008-.036c0-.008 0-.016-.005-.023s-.006-.029-.009-.043v-.024q0-.02-.007-.04v-.038c0-.022-.006-.044-.008-.066s0-.02 0-.031v-.154c0-.017-.024-.046-.023-.061zm19.037 2.089v14.394c0 .025 0 .049-.007.074q-.01.1-.026.2c0 .021-.008.043-.012.064v.034l-.007.031v.015l-.012.047a1.557 1.557 0 0 1-.049.145l-.029.071a.69.69 0 0 1-.028.06l-.021.042-.013.025-.027.048v.005l-.024.041-.007.012-.027.042-.034.049-.036.048-.035.044-.049.057q-.043.048-.089.092l-.031.029-.041.036-.037.031-.04.032-.041.031-.042.029-.029.019q-.052.034-.107.064l-.027.015-.032.016-.032.016q-.056.027-.115.05l-.025.009-.039.014-.03.01c-.03.01-.06.019-.091.027l-.069.016-.026.005h-.037l-.047.008h-.02l-.081.009h-.25a1.543 1.543 0 0 1-.169-.019l-.038-.007-.068-.015-.041-.01-.041-.011h-.015l-.025-.008-.064-.022-.066-.026-.055-.024h-.009a1.6 1.6 0 0 1-.117-.059l-.03-.017-.097-.04a1.818 1.818 0 0 1-.106-.073l-.023-.017a1.765 1.765 0 0 1-.142-.12l-.025-.024-.024-.024-.024-.025-.024-.025-.032-.036-.02-.024-.016-.019-.029-.037-.024-.031a1.995 1.995 0 0 1-.088-.131l-.018-.03-.022-.04v-.006l-.024-.046-.021-.044-.022-.05-.021-.051-.013-.034-.016-.046-.009-.029-.013-.044a6.991 6.991 0 0 1-.018-.07l-.008-.036c0-.018-.008-.036-.011-.054a2.099 2.099 0 0 1-.018-.11c0-.018 0-.037-.007-.055a2.783 2.783 0 0 1-.015-.223V16.05H23.61l-.013.005-.025.014-.009.007-.009.008-.005.005-.005.005-.014.017-.009.012-.009.012-.009.012-.008.011-.013.016v.005l-1.771 2-1.77 2-.3.336-.15.168-.15.168-.129.147-.012.014-.094.108-.069.081-.007.008-.041.048-.024.027-.038.041-.03.032-.04.04-.035.033-.026.023h-.005l-.024.02-.008.007-.019.016-.053.041-.043.031q-.049.035-.1.066l-.053.031-.054.029q-.057.029-.116.054l-.018.007-.028.011-.014.005-.07.025-.025.008-.064.019-.02.005-.077.018h-.021l-.079.013-.045.006H17.437l-.038-.005a1.34 1.34 0 0 1-.107-.02l-.049-.011-.046-.012-.026-.007-.048-.014-.043-.014-.054-.019-.046-.018h-.006l-.074-.005-.054-.025-.054-.027-.457-.237-.458-.236-.515-.264-.4-.2-.459-.233-.459-.233-.919-.465-1.225-.625c-.081-.041-.163-.079-.3-.145v8.439c0 .1 0 .2-.012.3 0 .032-.006.063-.01.1s-.006.041-.009.062 0 .017 0 .026v.015c0 .016-.006.031-.009.047s0 .018-.006.028-.007.033-.012.049 0 .015-.006.023v.011c0 .009 0 .019-.008.029v.007c0 .014-.008.028-.013.042l-.016.048q-.023.063-.05.124l-.018.04-.029.059-.029.053-.022.038-.028.045-.018.028-.024.036-.025.035q-.05.069-.106.131-.034.038-.069.073l-.03.03-.031.029q-.042.039-.087.074l-.025.02a1.722 1.722 0 0 1-.167.113l-.026.015-.038.021-.032.017-.053.026-.032.014-.045.019-.02.008q-.044.018-.089.033l-.043.014-.045.013-.023.006-.023.006h-.009l-.042.009-.033.007-.028.005-.049.008-.043.006H9.832a1.87 1.87 0 0 1-.193-.01 1.786 1.786 0 0 1-1.5-1.537c0-.021 0-.043-.007-.064s0-.034 0-.05V16.21c0-.043 0-.086.006-.129s.006-.086.01-.128q0-.024.005-.048c0-.017 0-.034.006-.051s0-.034.007-.05a1.604 1.604 0 0 1 .042-.2c.009-.034.022-.077.035-.115 0-.012.008-.025.013-.037.018-.049.037-.1.058-.143l.016-.035a1.4 1.4 0 0 1 .034-.067l.037-.065.029-.047.03-.046.014-.021.015-.021.035-.047.045-.056.029-.034.043-.047.025-.026.025-.025.026-.024.026-.024.049-.042.016-.013.044-.034.031-.023.038-.027.075-.048.039-.023.087-.047.042-.02.042-.019.043-.018.034-.013.017-.007.042-.014.042-.013.039-.011.043-.011.028-.006.059-.012.078-.012.049-.011.056-.005h.13a1.749 1.749 0 0 1 .8.2c2.1 1.082 4.207 2.143 6.312 3.212.08.041.162.08.259.127l.048-.051.047-.05.069-.074.023-.025 6.55-7.414c.06-.068.12-.137.183-.2l.034-.034c.022-.022.044-.043.067-.063l.068-.059.014-.011.021-.017.028-.021.033-.024.047-.032.037-.024.037-.023.037-.022.038-.021.019-.01.019-.01.031-.015.1-.046.041-.015.039-.014.082-.026.062-.016.031-.007.035-.007.038-.007.083-.012h.042l.084-.006h.113a1.537 1.537 0 0 1 .173.012h.057l.085.015.028.006.028.006.056.015.055.017.028.009.026.009a1.58 1.58 0 0 1 .162.068l.026.013q.039.019.078.041l.029.017.032.02.025.016.039.026.048.035.047.037.023.019.03.025q.045.039.088.081l.027.027.015.016.017.018.021.023.04.047.032.041.025.034q.031.043.061.089l.02.031a.891.891 0 0 1 .031.052l.014.025.02.038.022.042.027.057.037.086.022.058.02.058c.007.019.012.039.018.059l.016.059.007.03.013.06.016.091V11.091q.008.064.012.129v.19q.023.955.023 1.922z" style="fill:url(#linear-gradient)"/>
        <path id="패스_2" data-name="패스 2" class="cls-2" d="M1613.864 809.648a1.905 1.905 0 0 1-.071.562 1.225 1.225 0 0 1-2.367-.168 2.506 2.506 0 0 1-.034-.445v-8.22l-.064-.01c-.051.075-.1.148-.154.224l-3.062 4.562a2.941 2.941 0 0 1-.188.263 1.233 1.233 0 0 1-1.928-.015c-.068-.083-.126-.174-.186-.264l-3.048-4.542a5.92 5.92 0 0 0-.18-.254 1.324 1.324 0 0 0-.041.18c-.006.082 0 .166 0 .249v7.758a3.562 3.562 0 0 1-.021.447 1.228 1.228 0 0 1-2.438-.013 2.915 2.915 0 0 1-.016-.347v-12.26a1.8 1.8 0 0 1 .046-.493 1.186 1.186 0 0 1 .974-.887 1.151 1.151 0 0 1 1.186.459c.188.242.349.5.521.758l4.007 5.935c.051.075.1.148.178.252.068-.094.126-.169.179-.248l4.327-6.438c.065-.1.128-.194.2-.284a1.207 1.207 0 0 1 1.344-.39 1.223 1.223 0 0 1 .839 1.095v.224q0 6.156-.003 12.31z" transform="translate(-1560.275 -776.176)"/>
        <path id="패스_3" data-name="패스 3" class="cls-2" d="M4396.126 806.635c.057-.034.116-.065.174-.1a5.453 5.453 0 0 0-2.621-10.228c-.888-.009-1.775 0-2.662 0-.5 0-1-.006-1.492 0a1.242 1.242 0 0 0-1.271 1.124 2.541 2.541 0 0 0-.01.323v12.435a1.241 1.241 0 0 0 2.339.53 1.355 1.355 0 0 0 .136-.649v-2.851h2.197a.482.482 0 0 1 .391.163c.53.56 1.069 1.112 1.6 1.666.64.662 1.272 1.33 1.921 1.982a1.218 1.218 0 0 0 2.041-.509 1.237 1.237 0 0 0-.333-1.3q-1.139-1.165-2.275-2.333c-.062-.064-.12-.131-.176-.193.024-.034.029-.053.041-.06zm-.04-3.134-.041.056q-.083.111-.175.213l-.053.057-.027.028-.027.028a2.047 2.047 0 0 1-.083.079l-.029.026-.017.016-.04.034-.067.056-.031.025-.048.037-.042.031c-.03.022-.061.044-.092.064l-.035.023-.083.052-.026.016a2.225 2.225 0 0 1-.083.047l-.034.018-.035.018-.028.014-.038.018-.052.024-.037.017-.036.016-.047.019-.04.015-.046.018-.02.006-.052.018-.059.019-.026.008h-.009l-.04.012-.061.016a2.79 2.79 0 0 1-.275.056h-.02l-.066.009-.066.007-.063.006-.087.005h-.067c-.969.024-1.939 0-2.909 0h-.017c-.022 0-.046-.006-.083-.012h-.032v-5.921a2.07 2.07 0 0 1 .216-.023c.912 0 1.823-.013 2.735 0q.155 0 .307.02l.15.021a3.049 3.049 0 0 1 .571.152c.046.017.091.035.135.054l.065.029.053.025.029.014.048.024.063.034.047.027.036.021.022.013.03.018.109.071.05.035.036.026.036.027c.036.027.07.055.1.083l.053.046a.727.727 0 0 1 .1.1l.05.05.049.051a.778.778 0 0 1 .048.052l.043.05.013.014.035.043.038.048.012.016.036.048.041.057q.04.058.078.118l.037.06c.012.02.021.033.029.05a2.595 2.595 0 0 1 .135.266c.019.044.038.088.055.133l.021.055c0 .007.005.015.008.023l.016.045c.005.015.015.043.021.065l.01.03c0 .014.008.029.012.044V800.959l.012.046v.007c.013.046.022.092.032.139l.016.083.009.055a.113.113 0 0 1 0 .013v.013l.008.056c.006.049.011.1.015.149v.315c0 .1-.01.194-.022.289l-.01.071c0 .024-.007.047-.012.071l-.013.07c-.014.07-.03.139-.049.207l-.02.068a2.07 2.07 0 0 1-.044.133l-.024.065-.025.065-.027.064-.025.055-.033.071c-.02.042-.042.082-.064.123l-.034.06a.625.625 0 0 1-.124.253z" transform="translate(-4279.13 -776.519)"/>
        <path id="패스_4" data-name="패스 4" class="cls-2" d="M3891.172 809.86a1.245 1.245 0 0 1-1.175 1.03h-8.083a2.217 2.217 0 0 1-.347-.019 1.236 1.236 0 0 1-1.069-1.191v-12.482a2.181 2.181 0 0 1 .033-.395 1.224 1.224 0 0 1 1.212-1.011c1.186-.005 2.371 0 3.557 0h4.625a1.244 1.244 0 0 1 .106 2.484c-.1.006-.2 0-.3 0h-6.7a31.073 31.073 0 0 0-.034 3.492c.1.006.2.018.306.018h4.377a2.132 2.132 0 0 1 .469.037 1.247 1.247 0 0 1-.231 2.453h-4.928v4.1h6.826a1.761 1.761 0 0 1 .56.083 1.229 1.229 0 0 1 .796 1.401z" transform="translate(-3784.019 -776.018)"/>
        <path id="패스_5" data-name="패스 5" class="cls-2" d="M2245.792 809.925q-2-4.549-3.994-9.1l-1.488-3.39a1.231 1.231 0 0 0-2.254 0c-.021.045-.04.091-.059.137l-5.02 11.443c-.153.349-.315.694-.455 1.049a1.24 1.24 0 1 0 2.3.935q.583-1.344 1.171-2.687c.036-.082.076-.163.115-.246h6.159c.041.087.08.169.116.251l1.109 2.551a2.715 2.715 0 0 0 .14.291 1.238 1.238 0 0 0 1.243.6 1.264 1.264 0 0 0 1.038-.947 1.323 1.323 0 0 0-.121-.887zm-8.548-4.365v-.061a.112.112 0 0 1 0-.011v-.014l.006-.017.006-.018.006-.017c0-.014.011-.029.017-.044v-.016l.006-.014.007-.019.014-.035.009-.021.015-.037v-.007l.031-.077.007-.017a.142.142 0 0 1 .006-.015v-.005l.006-.016v-.01l.011-.027.015-.038v-.009l.012-.029.008-.02.043-.1.027-.064.005-.012.009-.021.014-.033.019-.045.07-.167.018-.043.018-.044.038-.089.019-.045.039-.091.04-.093.1-.238.063-.146c.5-1.155 1.074-2.452 1.172-2.607.066.075.645 1.352 1.155 2.517l.064.147.042.1.042.1.021.048.12.278c.1.226.187.436.262.617.035.084.068.162.1.233l.024.059.032.08.01.025.018.046.008.022.015.04.019.051.01.028a.431.431 0 0 1 .014.047c-.126.024-3.513.034-3.832-.007z" transform="translate(-2176.917 -776.904)"/>
        <path id="패스_6" data-name="패스 6" class="cls-2" d="M2862.887 809.724a4.473 4.473 0 0 1-2.733 1.6 5.517 5.517 0 0 1-3.477-.369 4.384 4.384 0 0 1-2.585-3.556c-.021-.147-.014-.3-.021-.447a1.23 1.23 0 0 1 1.188-1.275 1.252 1.252 0 0 1 1.289 1.211 2.663 2.663 0 0 0 .125.7 1.937 1.937 0 0 0 1.383 1.246 3.27 3.27 0 0 0 2.006-.051 2 2 0 0 0 1.325-2.286 1.178 1.178 0 0 0-.52-.816 3.838 3.838 0 0 0-.767-.4c-.608-.217-1.23-.393-1.843-.6-.471-.157-.944-.314-1.4-.5a4.5 4.5 0 0 1-1.447-.949 3.371 3.371 0 0 1-1.019-2.157 4.168 4.168 0 0 1 .827-3 4.235 4.235 0 0 1 2.779-1.636c.325-.057.658-.073.837-.093a4.933 4.933 0 0 1 3.132.941 4.093 4.093 0 0 1 1.648 3.331 1.244 1.244 0 0 1-2.488.015 1.775 1.775 0 0 0-1.563-1.755 3 3 0 0 0-1.451.073 1.734 1.734 0 0 0-1.262 1.855.942.942 0 0 0 .4.743 2.857 2.857 0 0 0 .625.351c.591.216 1.189.412 1.79.6a13.294 13.294 0 0 1 1.708.606 5.046 5.046 0 0 1 1.361.9 3.685 3.685 0 0 1 1.143 2.416 4.426 4.426 0 0 1-.99 3.302z" transform="translate(-2783.102 -776.564)"/>
        <path id="패스_7" data-name="패스 7" class="cls-2" d="M3338.97 797.685a1.2 1.2 0 0 1-1.17 1.161c-1.052.017-2.105.006-3.158.007h-.329v11.381a1.252 1.252 0 0 1-2.5-.021v-11.34c-.111-.007-.206-.019-.3-.019h-3.009a1.776 1.776 0 0 1-.443-.043 1.223 1.223 0 0 1-.905-1.292 1.239 1.239 0 0 1 1.183-1.135c.083-.006.166 0 .249 0h8.953a2.492 2.492 0 0 1 .42.029 1.219 1.219 0 0 1 1.009 1.272z" transform="translate(-3244.415 -776.589)"/>
        <path id="패스_8" data-name="패스 8" class="cls-2" d="M4290.542 252.767c-.133.453-.28.9-.423 1.351q-1.312 4.118-2.627 8.236a1.838 1.838 0 0 1-.084.233.576.576 0 0 1-.507.347.557.557 0 0 1-.545-.279 1.768 1.768 0 0 1-.136-.292l-2.3-5.718c-.039-.1-.081-.191-.122-.286h-.051c-.034.081-.068.161-.1.242l-2.325 5.787a2.292 2.292 0 0 1-.1.228.618.618 0 0 1-1.1-.033 3.086 3.086 0 0 1-.129-.376l-2.92-9.212a2.465 2.465 0 0 1-.079-.287.657.657 0 0 1 .419-.734.647.647 0 0 1 .76.368 1.767 1.767 0 0 1 .073.211l2.387 7.531c.03.094.064.186.119.34.059-.133.1-.215.133-.3l2.232-5.61a2.211 2.211 0 0 1 .1-.228.6.6 0 0 1 .571-.33.563.563 0 0 1 .535.342c.086.188.16.382.236.574l2.109 5.258c.033.081.071.158.131.289.048-.134.081-.216.107-.3l2.393-7.555c.021-.063.037-.127.062-.189a.639.639 0 0 1 .761-.4.65.65 0 0 1 .42.792z" transform="translate(-4170.641 -245.683)"/>
        <path id="패스_9" data-name="패스 9" class="cls-2" d="M2483.364 258.385a.641.641 0 0 0 .7-.695 6.266 6.266 0 0 0-.493-2.494 4.676 4.676 0 0 0-5.156-2.89 4.54 4.54 0 0 0-3.389 2.355 6.129 6.129 0 0 0-.507 4.973 4.911 4.911 0 0 0 5.1 3.582 4.8 4.8 0 0 0 3.926-2.409.625.625 0 0 0 .045-.089.636.636 0 1 0-1.154-.535 3.538 3.538 0 0 1-3.716 1.712 3.865 3.865 0 0 1-3.2-3.51h6.877c.32.001.644.004.967 0zm-1.208-1.3h-.663l-.72.006H2475.512V257.039c0-.022.006-.044.009-.066s0-.034.007-.05.006-.046.01-.069 0-.023.005-.034l.007-.039q.016-.081.034-.161l.019-.08.018-.069.037-.137q.039-.136.087-.268l.024-.066.032-.083c.011-.027.027-.067.042-.1l.028-.064.031-.067.013-.027.021-.044.016-.032.028-.055.01-.019a.897.897 0 0 1 .029-.053l.055-.1c.019-.035.055-.091.083-.136a3.956 3.956 0 0 1 .392-.514l.056-.061.057-.06.059-.059a3.528 3.528 0 0 1 2.468-.985h.125l.128.007h.033c.049 0 .1.009.146.015l.054.007.054.008c.089.013.178.03.267.051l.048.011.026.007.042.011.082.023.032.01.085.027.046.015a3.41 3.41 0 0 1 .362.151l.05.025.044.023q.08.042.158.089l.088.055q.073.047.144.1l.088.066.053.042.036.03.052.044.035.031.036.032.012.011.038.035.042.041.042.042.041.042.04.044.033.037.01.011.036.042.039.046q.038.047.076.1a3.988 3.988 0 0 1 .212.309q.034.054.066.11l.056.1.053.1.026.052c.026.052.05.1.073.157l.023.053c.015.035.03.07.043.106l.026.068.025.068.018.052.026.078.014.046c0 .014.009.029.013.044l.019.066.021.077c0 .019.01.038.015.056l.01.039.043.194c0 .024.01.048.014.073l.009.048c.003.016 0 .015 0 .023s.007.038.01.057l.006.036c0 .016.005.033.007.049l.012.087a.264.264 0 0 1-.008.069h-.431z" transform="translate(-2412.694 -245.973)"/>
        <path id="패스_10" data-name="패스 10" class="cls-2" d="M3810.673 258.655a.665.665 0 0 0 .756-.767 6.234 6.234 0 0 0-.488-2.4 4.764 4.764 0 0 0-8.44-.756 5.59 5.59 0 0 0-.864 2.489 6.047 6.047 0 0 0 .52 3.393 4.944 4.944 0 0 0 8.634.63 1.455 1.455 0 0 0 .167-.3.64.64 0 0 0-.3-.787.607.607 0 0 0-.8.187 1.575 1.575 0 0 0-.094.146 3.678 3.678 0 0 1-5.733.639 4.213 4.213 0 0 1-1.1-2.079c-.026-.118-.04-.239-.066-.4h7.807zm-7.788-1.461.016-.094c0-.023.008-.047.013-.07l.014-.069.015-.069.016-.069.021-.089.021-.079.021-.076.013-.045.016-.051.013-.04.019-.058.019-.055a2.44 2.44 0 0 1 .036-.1l.014-.036.049-.123.026-.061c.009-.02.03-.069.046-.1l.016-.033.025-.051.025-.051.029-.055.033-.059.024-.042c.025-.044.051-.087.078-.13l.036-.056.037-.056.039-.055.044-.062.034-.046.041-.053.008-.01.034-.043.044-.053.04-.047.045-.051.095-.1.049-.05.1-.1.071-.065a3.283 3.283 0 0 1 .438-.326c.045-.027.09-.054.135-.079a3.617 3.617 0 0 1 1.805-.449h.06a3.581 3.581 0 0 1 .532.056l.078.015.081.018c.053.012.106.026.159.041l.052.015c.053.016.1.032.157.051l.1.038.051.02.1.043.05.023c.068.032.135.065.2.1l.041.023q.1.057.2.123l.044.03.047.033.044.032.045.035.042.032c.046.037.092.075.137.115l.043.039.041.038a3.466 3.466 0 0 1 .392.443l.015.02c.045.061.088.124.13.189l.039.061.038.062.033.056.026.047a9.546 9.546 0 0 1 .097.188l.023.048.022.048.032.07.011.026.03.073q.06.146.109.3l.018.055.013.043a.236.236 0 0 1 .007.026l.018.061.029.1c0 .012.007.024.01.037l.02.08.01.044c0 .02.009.04.014.06l.009.043.017.082v.017l.011.059a.272.272 0 0 1 0 .028l.009.052a.889.889 0 0 1 .01.149.108.108 0 0 1 0 .018.18.18 0 0 1-.005.019v.011c0 .008 0 .017-.008.027a.069.069 0 0 0 0 .01h-7.2a.842.842 0 0 1 .004-.166z" transform="translate(-3707.077 -246.243)"/>
        <path id="패스_11" data-name="패스 11" class="cls-2" d="M1744.651 262.312a1.365 1.365 0 0 1-.029.3.589.589 0 0 1-.59.471.6.6 0 0 1-.595-.5 2.067 2.067 0 0 1-.019-.347v-5.347a4.119 4.119 0 0 0-.285-1.629 2.816 2.816 0 0 0-2.13-1.831 2.978 2.978 0 0 0-3.052 1.181 3.311 3.311 0 0 0-.7 1.907c-.011.19-.012.381-.012.572v5.148a1.841 1.841 0 0 1-.027.371.6.6 0 0 1-1.184-.022 1.71 1.71 0 0 1-.019-.3v-9.4a2.065 2.065 0 0 1 .008-.224.608.608 0 0 1 1.213-.006c.017.156.008.315.012.472 0 .089.008.177.014.321l.23-.211a4.305 4.305 0 0 1 4.837-.69 4.217 4.217 0 0 1 2.1 2.625 5.558 5.558 0 0 1 .233 1.668q-.001 2.735-.005 5.471z" transform="translate(-1692.836 -245.825)"/>
        <path id="패스_12" data-name="패스 12" class="cls-2" d="M3234.926 252.718a1.7 1.7 0 0 1-.076.21l-3.729 9.508a.63.63 0 0 1-.523.467.619.619 0 0 1-.676-.433c-.188-.469-.369-.941-.552-1.411q-1.6-4.085-3.191-8.171a1.184 1.184 0 0 1-.075-.236.618.618 0 0 1 .447-.709.584.584 0 0 1 .729.359c.256.629.5 1.263.749 1.9q1.177 3 2.353 5.99c.035.09.077.178.115.267h.058l.128-.318 3.019-7.678c.018-.046.035-.093.055-.139a.6.6 0 0 1 .743-.373.648.648 0 0 1 .426.767z" transform="translate(-3145.877 -245.654)"/>
        <path id="패스_13" data-name="패스 13" class="cls-2" d="M2165.434 155.211a1.054 1.054 0 0 1-.188.26 2.533 2.533 0 0 1-3.815-.157 2.7 2.7 0 0 1-.594-1.753V146.546c-.208 0-.387.007-.567 0a.631.631 0 0 1-.594-.817.61.61 0 0 1 .588-.449c.166-.006.332-.005.5-.01.014 0 .029-.014.064-.032 0-.076.01-.165.01-.254v-1.641a1.4 1.4 0 0 1 .021-.272.621.621 0 0 1 1.231.04 1.661 1.661 0 0 1 .007.223v1.931c.113 0 .2.012.29.012h1.916a.619.619 0 0 1 .619.375.632.632 0 0 1-.537.889c-.132.013-.265 0-.4 0h-1.871c-.008.092-.018.156-.018.22v6.865a1.309 1.309 0 0 0 1.038 1.314 1.21 1.21 0 0 0 1.148-.315c.048-.045.089-.1.137-.144a.6.6 0 0 1 .792-.089.634.634 0 0 1 .223.819z" transform="translate(-2105.948 -138.999)"/>
        <path id="패스_14" data-name="패스 14" class="cls-2" d="M2954.666 253.634a4.082 4.082 0 0 0-.713.087 3.06 3.06 0 0 0-2.214 2.212 3.741 3.741 0 0 0-.158 1.128v5.47a2.343 2.343 0 0 1 0 .249.616.616 0 0 1-.639.567.607.607 0 0 1-.583-.6v-9.797a.613.613 0 0 1 1.224-.01c.012.19 0 .381.005.572a.762.762 0 0 0 .027.12l.218-.193a4.151 4.151 0 0 1 2.814-1.076.613.613 0 0 1 .625.435.639.639 0 0 1-.606.836z" transform="translate(-2876.987 -246.093)"/>
        <path id="패스_15" data-name="패스 15" class="cls-2" d="M3665.533 253.14v9.345a2.206 2.206 0 0 1-.011.273.6.6 0 0 1-.6.552.632.632 0 0 1-.635-.549 1.825 1.825 0 0 1-.006-.248v-9.422a1.127 1.127 0 0 1 .049-.365.617.617 0 0 1 1.19.14 2.115 2.115 0 0 1 .013.274z" transform="translate(-3573.161 -246.056)"/>
        <path id="패스_16" data-name="패스 16" class="cls-2" d="M1604.067 262.8a.6.6 0 0 1-.6.555.624.624 0 0 1-.636-.545 1.982 1.982 0 0 1-.007-.248v-9.419a1.919 1.919 0 0 1 .006-.223.632.632 0 0 1 .639-.544.61.61 0 0 1 .595.558c.008.091.006.182.006.273v9.295a2.955 2.955 0 0 1-.003.298z" transform="translate(-1562.972 -246.097)"/>
        <path id="패스_17" data-name="패스 17" class="cls-2" d="M3663.488 155.463a.685.685 0 0 1-1.37-.018.685.685 0 1 1 1.37.018z" transform="translate(-3571.053 -150.909)"/>
        <path id="패스_18" data-name="패스 18" class="cls-2" d="M1601.952 155.44a.666.666 0 0 1-.665.686.674.674 0 0 1-.7-.658.7.7 0 0 1 .679-.708.688.688 0 0 1 .686.68z" transform="translate(-1560.79 -150.909)"/>
        <path id="패스_19" data-name="패스 19" d="M329.277 390.058v8.431a2.244 2.244 0 0 1-.113.781 1.745 1.745 0 0 1-1.849 1.163 1.786 1.786 0 0 1-1.505-1.536 3.465 3.465 0 0 1-.025-.421v-11.048a3.153 3.153 0 0 1 .08-.811 1.727 1.727 0 0 1 2.477-1.116c2.1 1.081 4.207 2.141 6.312 3.209.08.041.162.08.259.127.065-.069.127-.134.187-.2l6.55-7.408c.06-.068.12-.137.183-.2a1.7 1.7 0 0 1 2.793.426 2.113 2.113 0 0 1 .206.961q-.005 7.721-.007 15.442a6.92 6.92 0 0 1-.049 1.138 1.74 1.74 0 0 1-1.805 1.45 1.77 1.77 0 0 1-1.571-1.346 2.516 2.516 0 0 1-.061-.589v-11.456c-.112 0-.145.084-.194.139l-3.54 4c-.318.36-.643.714-.953 1.081a1.732 1.732 0 0 1-2.179.414c-1.624-.844-3.261-1.662-4.893-2.491a6.246 6.246 0 0 1-.303-.14z" transform="translate(-317.676 -371.008)" style="fill:#fff"/>
        <path id="패스_20" data-name="패스 20" d="M329.671 382.389a1.872 1.872 0 0 1-.637 1.412 1.667 1.667 0 0 1-2.315-.079 1.89 1.89 0 0 1-.048-2.591 1.612 1.612 0 0 1 1.626-.511 1.706 1.706 0 0 1 1.286 1.256 4.014 4.014 0 0 1 .088.513z" transform="translate(-318.062 -371.109)" style="fill:#65b1e3"/>
        <rect id="사각형_2" data-name="사각형 2" class="cls-2" height="5.921" transform="translate(111.607 22.298)"/>
        <path id="패스_21" data-name="패스 21" class="cls-2" d="M2426.084 1117.958c.006-.049.147-.4.351-.886-.2.486-.345.837-.351.886z" transform="translate(-2365.754 -1089.294)"/>
        <path id="패스_22" data-name="패스 22" class="cls-2" d="m2443.744 1101.7.075-.177z" transform="translate(-2382.975 -1074.13)"/>
        <path id="패스_23" data-name="패스 23" class="cls-2" d="M2526.244 435.142c.013-.089.022-.181.038-.271-.015.091-.025.182-.037.271z" transform="translate(-2463.423 -424.057)"/>
        <path id="패스_24" data-name="패스 24" class="cls-2" d="M2527.761 426.983c0 .013-.005.026-.007.039l.007-.039z" transform="translate(-2464.896 -416.208)"/>
        <path id="패스_25" data-name="패스 25" class="cls-2" d="M2530.154 402.443a4.637 4.637 0 0 1 .166-.541 4.751 4.751 0 0 0-.166.541z" transform="translate(-2467.237 -391.908)"/>
        <path id="패스_26" data-name="패스 26" class="cls-2" d="m2549.217 370.461-.083.136.083-.136z" transform="translate(-2485.745 -361.249)"/>
        <path id="패스_27" data-name="패스 27" class="cls-2" d="M2578.344 447.141z" transform="translate(-2514.228 -436.022)"/>
        <path id="패스_28" data-name="패스 28" class="cls-2" d="M2593.9 447.262h.405z" transform="translate(-2529.402 -436.14)"/>
        <path id="패스_29" data-name="패스 29" class="cls-2" d="M2659.274 447.422z" transform="translate(-2593.146 -436.295)"/>
        <path id="패스_30" data-name="패스 30" class="cls-2" d="M2610.684 447.362h1.209z" transform="translate(-2545.764 -436.238)"/>
        <path id="패스_31" data-name="패스 31" class="cls-2" d="M3864.274 395.374c.016-.041.032-.082.05-.123-.018.041-.034.082-.05.123z" transform="translate(-3768.201 -385.422)"/>
        <path id="패스_32" data-name="패스 32" class="cls-2" d="M3894.9 346.022q.045-.051.094-.1z" transform="translate(-3798.069 -337.319)"/>
    </g>
</svg>
