<svg xmlns="http://www.w3.org/2000/svg" width="52" height="52" viewBox="0 0 52 52">
    <defs>
        <clipPath id="clip-path">
            <path id="사각형_25973" data-name="사각형 25973" transform="translate(1318.489 305.489)" style="fill:#fff;stroke:#707070" d="M0 0h52v52H0z"/>
        </clipPath>
        <style>
            .cls-3{fill:#5f4eee}
        </style>
    </defs>
    <g id="img_check_small" transform="translate(-1318.489 -305.489)" style="clip-path:url(#clip-path)">
        <g id="그룹_19784" data-name="그룹 19784" transform="translate(1319.87 306.87)">
            <g id="그룹_19780" data-name="그룹 19780">
                <path id="패스_9116" data-name="패스 9116" class="cls-3" d="M-449.876 37.647a24.511 24.511 0 0 1-24.483-24.483 24.51 24.51 0 0 1 24.483-24.483 24.511 24.511 0 0 1 24.483 24.483 24.511 24.511 0 0 1-24.483 24.483zm0-47.1a22.639 22.639 0 0 0-22.613 22.613 22.639 22.639 0 0 0 22.613 22.613 22.639 22.639 0 0 0 22.613-22.613 22.639 22.639 0 0 0-22.613-22.609z" transform="translate(474.359 11.319)"/>
            </g>
            <g id="그룹_19783" data-name="그룹 19783" transform="translate(12.692 14.866)">
                <path id="패스_9118" data-name="패스 9118" class="cls-3" d="M-424.34 53.683a.932.932 0 0 1-.656-.269l-8.358-8.241a.935.935 0 0 1-.009-1.322.935.935 0 0 1 1.322-.009l7.7 7.591 14.881-14.777a.935.935 0 0 1 1.322 0 .935.935 0 0 1 0 1.322l-15.538 15.429a.932.932 0 0 1-.664.276z" transform="translate(433.633 -36.384)"/>
            </g>
        </g>
    </g>
</svg>
