<svg xmlns="http://www.w3.org/2000/svg" width="30" height="30" viewBox="0 0 30 30">
    <defs>
        <clipPath id="clip-path">
            <path id="사각형_25782" data-name="사각형 25782" transform="translate(820 887)" style="fill:#ffb5b5" d="M0 0h30v30H0z"/>
        </clipPath>
        <style>
            .cls-3{fill:#999}
        </style>
    </defs>
    <g id="img_coin_gray" transform="translate(-820 -887)" style="clip-path:url(#clip-path)">
        <g id="coin_2_" data-name="coin (2)" transform="translate(813.723 851.851)">
            <path id="패스_8781" data-name="패스 8781" class="cls-3" d="M230.8 357.6h9.583a.8.8 0 1 0 0-1.6H230.8a.8.8 0 1 0 0 1.6zm0 0" transform="translate(-206.902 -300.613)"/>
            <path id="패스_8782" data-name="패스 8782" class="cls-3" d="M230.8 397.6h9.583a.8.8 0 1 0 0-1.6H230.8a.8.8 0 1 0 0 1.6zm0 0" transform="translate(-206.902 -337.566)"/>
            <path id="패스_8783" data-name="패스 8783" class="cls-3" d="M230.8 317.6h9.583a.8.8 0 1 0 0-1.6H230.8a.8.8 0 1 0 0 1.6zm0 0" transform="translate(-206.902 -263.661)"/>
            <path id="패스_8785" data-name="패스 8785" class="cls-3" d="M230.8 277.6h9.583a.8.8 0 1 0 0-1.6H230.8a.8.8 0 1 0 0 1.6zm0 0" transform="translate(-206.902 -226.708)"/>
            <path id="패스_8787" data-name="패스 8787" class="cls-3" d="M230.8 157.6h9.583a.8.8 0 1 0 0-1.6H230.8a.8.8 0 1 0 0 1.6zm0 0" transform="translate(-206.902 -115.851)"/>
            <path id="패스_8788" data-name="패스 8788" class="cls-3" d="M230.8 197.6h9.583a.8.8 0 1 0 0-1.6H230.8a.8.8 0 1 0 0 1.6zm0 0" transform="translate(-206.902 -152.804)"/>
            <path id="패스_8789" data-name="패스 8789" class="cls-3" d="M230.8 237.6h9.583a.8.8 0 0 0 0-1.6H230.8a.8.8 0 0 0 0 1.6zm0 0" transform="translate(-206.902 -189.756)"/>
            <path id="패스_8798" data-name="패스 8798" class="cls-3" d="M30.8 397.6h9.583a.8.8 0 0 0 0-1.6H30.8a.8.8 0 0 0 0 1.6zm0 0" transform="translate(-21.722 -337.566)"/>
            <path id="패스_8799" data-name="패스 8799" class="cls-3" d="M30.8 277.6h9.583a.8.8 0 1 0 0-1.6H30.8a.8.8 0 1 0 0 1.6zm0 0" transform="translate(-21.722 -226.708)"/>
            <path id="패스_8800" data-name="패스 8800" class="cls-3" d="M30.8 317.6h9.583a.8.8 0 1 0 0-1.6H30.8a.8.8 0 1 0 0 1.6zm0 0" transform="translate(-21.722 -263.661)"/>
            <path id="패스_8801" data-name="패스 8801" class="cls-3" d="M30.8 357.6h9.583a.8.8 0 1 0 0-1.6H30.8a.8.8 0 1 0 0 1.6zm0 0" transform="translate(-21.722 -300.613)"/>
        </g>
    </g>
</svg>
