<svg xmlns="http://www.w3.org/2000/svg" width="55" height="55">
    <defs>
        <clipPath id="clip-path">
            <path id="사각형_25639" data-name="사각형 25639" transform="translate(.121 .061)" style="fill:#fff" d="M0 0h55v55H0z"/>
        </clipPath>
        <style>
            .cls-3{fill:#ffac37}.cls-4{fill:#ffe356}.cls-5{fill:#ffb44a}.cls-6{fill:#f80}.cls-7{fill:#ffc146}
        </style>
    </defs>
    <g id="img_coin" transform="translate(-.121 -.061)" style="clip-path:url(#clip-path)">
        <g id="coin" transform="translate(10.807 3.242)">
            <g id="그룹_19369" data-name="그룹 19369" transform="translate(0 28.876)">
                <path id="패스_8712" data-name="패스 8712" class="cls-3" d="M122.627 337.507A1.627 1.627 0 0 1 121 335.88v-3.254a1.627 1.627 0 0 1 1.627-1.626h26.028a1.627 1.627 0 0 1 1.627 1.627v3.254a1.627 1.627 0 0 1-1.627 1.627z" transform="translate(-117.746 -331)"/>
                <path id="패스_8713" data-name="패스 8713" class="cls-4" d="M92.627 397.507A1.627 1.627 0 0 1 91 395.88v-3.253A1.627 1.627 0 0 1 92.627 391h26.028a1.627 1.627 0 0 1 1.627 1.627v3.253a1.627 1.627 0 0 1-1.627 1.627z" transform="translate(-91 -384.493)"/>
                <path id="패스_8714" data-name="패스 8714" class="cls-3" d="M122.627 457.615a1.627 1.627 0 0 1-1.627-1.626v-3.362a1.627 1.627 0 0 1 1.627-1.627h26.028a1.627 1.627 0 0 1 1.627 1.627v3.362a1.627 1.627 0 0 1-1.627 1.627z" transform="translate(-117.746 -437.986)"/>
            </g>
            <g id="그룹_19370" data-name="그룹 19370" transform="translate(3.225)">
                <path id="패스_8715" data-name="패스 8715" class="cls-4" d="M135.641 90.282a14.641 14.641 0 1 1 14.641-14.641 14.657 14.657 0 0 1-14.641 14.641z" transform="translate(-121 -61)"/>
            </g>
            <path id="패스_8716" data-name="패스 8716" class="cls-5" d="M270.641 75.641A14.657 14.657 0 0 0 256 61v29.282a14.657 14.657 0 0 0 14.641-14.641z" transform="translate(-238.207 -61)"/>
            <path id="패스_8717" data-name="패스 8717" class="cls-6" d="M220.761 105.641a4.9 4.9 0 0 1-3.254 4.587v1.92a1.627 1.627 0 0 1-3.254 0v-1.92a4.662 4.662 0 0 1-1.822-1.139 1.611 1.611 0 0 1 0-2.31 1.671 1.671 0 0 1 2.31 0 1.362 1.362 0 0 0 1.139.423 1.69 1.69 0 0 0 1.627-1.562 1.611 1.611 0 0 0-1.627-1.627 4.872 4.872 0 0 1-1.627-9.468v-1.918a1.627 1.627 0 0 1 3.254 0v1.919a4.66 4.66 0 0 1 1.822 1.139 1.611 1.611 0 0 1 0 2.31 1.671 1.671 0 0 1-2.31 0 1.363 1.363 0 0 0-1.139-.423 1.69 1.69 0 0 0-1.627 1.562 1.611 1.611 0 0 0 1.627 1.627 4.874 4.874 0 0 1 4.881 4.88z" transform="translate(-198.015 -87.869)"/>
            <g id="그룹_19371" data-name="그룹 19371" transform="translate(17.846 3.131)">
                <path id="패스_8718" data-name="패스 8718" class="cls-6" d="M260.88 185.88a4.9 4.9 0 0 1-3.254 4.587v1.92a1.611 1.611 0 0 1-1.626 1.627v-6.572a1.69 1.69 0 0 0 1.627-1.562 1.611 1.611 0 0 0-1.627-1.627V181a4.874 4.874 0 0 1 4.88 4.88z" transform="translate(-256 -171.239)"/>
                <path id="패스_8719" data-name="패스 8719" class="cls-6" d="M259.449 97.995a1.67 1.67 0 0 1-2.31 0 1.363 1.363 0 0 0-1.139-.423V91a1.611 1.611 0 0 1 1.627 1.627v1.919a4.659 4.659 0 0 1 1.822 1.139 1.611 1.611 0 0 1 0 2.31z" transform="translate(-256 -91)"/>
            </g>
            <path id="패스_8720" data-name="패스 8720" class="cls-7" d="M269.014 451H256v6.615h13.014a1.627 1.627 0 0 0 1.627-1.627v-3.362a1.627 1.627 0 0 0-1.627-1.626z" transform="translate(-238.207 -409.11)"/>
            <path id="패스_8721" data-name="패스 8721" class="cls-5" d="M265.761 391H256v6.507h9.761a1.627 1.627 0 0 0 1.627-1.627v-3.253a1.627 1.627 0 0 0-1.627-1.627z" transform="translate(-238.187 -355.617)"/>
            <path id="패스_8722" data-name="패스 8722" class="cls-7" d="M269.014 331H256v6.507h13.014a1.627 1.627 0 0 0 1.627-1.627v-3.254a1.627 1.627 0 0 0-1.627-1.626z" transform="translate(-238.207 -302.015)"/>
        </g>
    </g>
</svg>
