<svg xmlns="http://www.w3.org/2000/svg" width="55" height="55">
    <defs>
        <clipPath id="clip-path">
            <path id="사각형_25614" data-name="사각형 25614" transform="translate(.02 .061)" style="fill:#fff" d="M0 0h55v55H0z"/>
        </clipPath>
        <style>
            .cls-3{fill:#ffe3cb}
        </style>
    </defs>
    <g id="img_handshake" transform="translate(-.02 -.061)" style="clip-path:url(#clip-path)">
        <g id="hand-shake" transform="translate(1.148 10.335)">
            <path id="패스_8701" data-name="패스 8701" class="cls-3" d="M182.444 109.3a1.562 1.562 0 0 1-1.108.459h-6.117a1.567 1.567 0 0 1-1.567-1.568 1.543 1.543 0 0 0-.084-.536l-5.4-14.84-4.9-1.116a1.039 1.039 0 0 0-.971.28l-4.6 4.6a3.552 3.552 0 1 1-5.023-5.023l6.083-6.084a6.227 6.227 0 0 1 4.432-1.836h6.769a8.822 8.822 0 0 1 6.279 2.6l.533.533h4.575a1.567 1.567 0 0 1 1.567 1.567V108.2a1.561 1.561 0 0 1-.468 1.1z" transform="translate(-136.452 -83.645)"/>
            <path id="패스_8702" data-name="패스 8702" d="m330.772 228.644 3.228 8.865a1.545 1.545 0 0 1 .084.536 1.567 1.567 0 0 0 1.567 1.568h6.117a1.567 1.567 0 0 0 1.567-1.567v-9.4h-12.563z" transform="translate(-296.882 -213.767)" style="fill:#ffca9e"/>
            <path id="패스_8703" data-name="패스 8703" d="M88.6 116.776c-3.816-1.016-10.01-2.685-10.981-3a1.58 1.58 0 0 0-.676-.151H62.57a1.578 1.578 0 0 0-1.108.453 1.535 1.535 0 0 0-.459 1.093v20.609a1.544 1.544 0 0 0 .89 1.394L67.86 140l1.392 3.775a3.54 3.54 0 0 0 4.519 2.079 3.465 3.465 0 0 0 2.108-4.457 3.54 3.54 0 0 0 4.519 2.079 3.465 3.465 0 0 0 2.108-4.457 3.54 3.54 0 0 0 4.519 2.079 3.465 3.465 0 0 0 2.108-4.457 3.54 3.54 0 0 0 4.519 2.079 3.465 3.465 0 0 0 2.108-4.457l-1.63-4.418-1.185-3.212-3.279-8.889a1.559 1.559 0 0 0-1.064-.964z" transform="translate(-54.631 -110.495)" style="fill:#ffc5c5"/>
            <path id="패스_8704" data-name="패스 8704" class="cls-3" d="m173.4 93.943-10.134-2.218a1.039 1.039 0 0 0-.971.28l-4.6 4.6a3.552 3.552 0 1 1-5.023-5.023l6.083-6.084a6.227 6.227 0 0 1 4.432-1.836h6.769z" transform="translate(-136.118 -83.665)"/>
            <path id="패스_8705" data-name="패스 8705" d="M61 239.09a1.567 1.567 0 0 0 .89 1.413l5.967 2.859 1.392 3.827a3.526 3.526 0 1 0 6.627-2.411 3.526 3.526 0 1 0 6.627-2.411 3.526 3.526 0 0 0 6.627-2.411 3.526 3.526 0 1 0 6.627-2.411l-1.63-4.479-1.185-3.256-.424-1.165H61.005z" transform="translate(-54.631 -213.945)" style="fill:#faa"/>
            <path id="패스_8706" data-name="패스 8706" d="M428.952 113.941h-6.373a1.567 1.567 0 0 1-1.567-1.567V85.211a1.567 1.567 0 0 1 1.567-1.567h6.373a1.567 1.567 0 0 1 1.567 1.567v27.163a1.567 1.567 0 0 1-1.567 1.567z" transform="translate(-377.695 -83.644)" style="fill:#00afff"/>
            <path id="패스_8707" data-name="패스 8707" d="M421.012 228.644v13.582a1.567 1.567 0 0 0 1.567 1.567h6.373a1.567 1.567 0 0 0 1.567-1.567v-13.582z" transform="translate(-377.695 -213.821)" style="fill:#008cfa"/>
            <path id="패스_8708" data-name="패스 8708" d="M7.94 113.942H1.567A1.567 1.567 0 0 1 0 112.374V85.211a1.567 1.567 0 0 1 1.567-1.567h6.377a1.567 1.567 0 0 1 1.566 1.568v27.163a1.567 1.567 0 0 1-1.57 1.567z" transform="translate(0 -83.644)" style="fill:#ff3c3c"/>
            <path id="패스_8709" data-name="패스 8709" d="M0 242.223a1.567 1.567 0 0 0 1.567 1.567H7.94a1.567 1.567 0 0 0 1.567-1.567v-13.58H0z" transform="translate(0 -213.821)" style="fill:#f02323"/>
        </g>
    </g>
</svg>
